<svg xmlns="http://www.w3.org/2000/svg" viewBox="0 0 500 500"><g id="freepik--background-complete--inject-18"><path d="M30.71,160.76a17.91,17.91,0,0,1,4.41-1.91l.9-4.37,7.38-.13,1.06,4.33a18.16,18.16,0,0,1,4.47,1.76L52.66,158l5.3,5.12-2.31,3.81a18.33,18.33,0,0,1,1.92,4.41l4.36.91.13,7.37-4.33,1.06A18.16,18.16,0,0,1,56,185.15l2.44,3.73-5.12,5.3-3.81-2.31a17.94,17.94,0,0,1-4.41,1.92l-.9,4.36-7.38.13L35.73,194a17.78,17.78,0,0,1-4.47-1.76l-3.73,2.45-5.3-5.13,2.31-3.81a18.26,18.26,0,0,1-1.92-4.4l-4.36-.91L18.13,173,22.46,172a18.23,18.23,0,0,1,1.76-4.48l-2.44-3.72,5.12-5.31,3.81,2.31Zm3.93,9.82a7.91,7.91,0,1,0,11.18-.19A7.91,7.91,0,0,0,34.64,170.58Z" style="fill:#f5f5f5"></path><path d="M286.14,37.2a15.34,15.34,0,0,1,3.75-1.63l.78-3.72,6.27-.11.9,3.69a15.31,15.31,0,0,1,3.81,1.49l3.17-2.08,4.52,4.36-2,3.25A15.18,15.18,0,0,1,309,46.2l3.72.77.11,6.28-3.69.9a15.11,15.11,0,0,1-1.5,3.81l2.08,3.17-4.36,4.51-3.24-2a15.56,15.56,0,0,1-3.75,1.63L297.6,69l-6.28.11-.9-3.68a15.74,15.74,0,0,1-3.81-1.5L283.44,66l-4.51-4.36,2-3.24a15.25,15.25,0,0,1-1.63-3.76l-3.71-.77-.11-6.27,3.68-.91a15.42,15.42,0,0,1,1.5-3.8l-2.08-3.18,4.36-4.51,3.24,2Zm3.35,8.35a6.73,6.73,0,1,0,9.52-.16A6.73,6.73,0,0,0,289.49,45.55Z" style="fill:#f5f5f5"></path><path d="M74,41.46a25.13,25.13,0,0,1,6.1-2.65l1.25-6,10.19-.18,1.47,6A24.6,24.6,0,0,1,99.19,41l5.15-3.38,7.33,7.08L108.48,50a25.63,25.63,0,0,1,2.65,6.09l6,1.26.18,10.19-6,1.47a24.53,24.53,0,0,1-2.43,6.18l3.38,5.15-7.08,7.34L100,84.47a24.75,24.75,0,0,1-6.1,2.65l-1.25,6-10.19.17-1.47-6a25.15,25.15,0,0,1-6.18-2.43L69.6,88.29l-7.33-7.08L65.46,76a25.1,25.1,0,0,1-2.64-6.1l-6-1.25L56.6,58.4l6-1.46A25,25,0,0,1,65,50.75L61.65,45.6l7.08-7.33L74,41.46ZM79.43,55a10.93,10.93,0,1,0,15.46-.27A10.92,10.92,0,0,0,79.43,55Z" style="fill:#f5f5f5"></path><path d="M238.38,216a18.07,18.07,0,0,1,4.41-1.91l.91-4.37,7.37-.13,1.06,4.33a18,18,0,0,1,4.47,1.76l3.73-2.44,5.3,5.12-2.3,3.81a17.91,17.91,0,0,1,1.91,4.41l4.36.91.13,7.37-4.33,1.06a18.13,18.13,0,0,1-1.75,4.47l2.44,3.73L261,249.4l-3.81-2.31a18.1,18.1,0,0,1-4.41,1.92l-.91,4.36-7.37.13-1.06-4.33a17.63,17.63,0,0,1-4.47-1.76l-3.73,2.45-5.31-5.13,2.31-3.8a18.07,18.07,0,0,1-1.91-4.41l-4.36-.91-.13-7.37,4.32-1.06a18.63,18.63,0,0,1,1.76-4.48L229.45,219l5.12-5.31,3.81,2.31Zm3.93,9.82a7.91,7.91,0,1,0,11.19-.19A7.92,7.92,0,0,0,242.31,225.8Z" style="fill:#f5f5f5"></path><path d="M259.15,347.92a18.33,18.33,0,0,1,4.41-1.92l.9-4.36,7.38-.13,1.06,4.33a17.78,17.78,0,0,1,4.47,1.76l3.73-2.44,5.3,5.12-2.31,3.81a18.26,18.26,0,0,1,1.92,4.4l4.36.91.13,7.37-4.33,1.07a18.16,18.16,0,0,1-1.76,4.47l2.44,3.72-5.12,5.31L277.92,379a17.91,17.91,0,0,1-4.41,1.91l-.9,4.37-7.38.13-1.06-4.33a18.16,18.16,0,0,1-4.47-1.76L256,381.79l-5.31-5.12,2.31-3.81a18.33,18.33,0,0,1-1.92-4.41l-4.36-.91-.13-7.37,4.33-1.06a18.16,18.16,0,0,1,1.76-4.47l-2.44-3.73,5.12-5.3,3.81,2.31Zm3.93,9.82a7.91,7.91,0,1,0,11.18-.2A7.9,7.9,0,0,0,263.08,357.74Z" style="fill:#f5f5f5"></path><path d="M82.16,265.36a12,12,0,0,1,3-1.29l.61-2.95,5-.08.71,2.91a12.57,12.57,0,0,1,3,1.19L97,263.49l3.58,3.46L99,269.52a12,12,0,0,1,1.29,3l2.94.61.09,5-2.92.72a12.1,12.1,0,0,1-1.19,3l1.65,2.52-3.45,3.57-2.57-1.56a12.41,12.41,0,0,1-3,1.3l-.62,2.94-5,.09-.71-2.92a12.57,12.57,0,0,1-3-1.19L80,288.2l-3.58-3.46L78,282.18a11.9,11.9,0,0,1-1.29-3l-2.94-.61-.09-5,2.92-.72a12.47,12.47,0,0,1,1.18-3l-1.64-2.51,3.45-3.58,2.57,1.56ZM84.81,272a5.33,5.33,0,1,0,7.54-.13A5.33,5.33,0,0,0,84.81,272Z" style="fill:#f5f5f5"></path><path d="M89.54,303.66A22.2,22.2,0,0,1,95,301.31l1.12-5.37,9.06-.16,1.3,5.32a22.11,22.11,0,0,1,5.5,2.17l4.58-3,6.52,6.29-2.84,4.68a22,22,0,0,1,2.35,5.42l5.37,1.12.16,9.06-5.32,1.3a22.11,22.11,0,0,1-2.17,5.5l3,4.58-6.29,6.52-4.68-2.84a22.4,22.4,0,0,1-5.42,2.36l-1.12,5.36-9.06.16-1.3-5.32a22.11,22.11,0,0,1-5.5-2.17l-4.58,3L79.12,339,82,334.32a22.23,22.23,0,0,1-2.36-5.42l-5.36-1.12-.16-9.06,5.32-1.3a22.11,22.11,0,0,1,2.17-5.5l-3-4.58,6.3-6.52,4.68,2.84Zm4.83,12.07a9.72,9.72,0,1,0,13.75-.24A9.73,9.73,0,0,0,94.37,315.73Z" style="fill:#f5f5f5"></path><rect x="341.15" y="46.08" width="137.54" height="231.75" style="fill:#e0e0e0"></rect><rect x="344.86" y="50.44" width="129.66" height="223.58" style="fill:#f5f5f5"></rect><rect x="409.69" y="62.38" width="51.7" height="80.22" style="fill:#fff"></rect><path d="M438.29,69.47a1.93,1.93,0,1,1-1.93-1.93A1.93,1.93,0,0,1,438.29,69.47Z" style="fill:#e0e0e0"></path><rect x="357.58" y="164.93" width="51.7" height="80.22" style="fill:#fff"></rect><path d="M386.18,172a1.93,1.93,0,1,1-1.93-1.93A1.93,1.93,0,0,1,386.18,172Z" style="fill:#e0e0e0"></path><rect x="356.88" y="62.38" width="44.15" height="62.65" style="fill:#fff"></rect><path d="M380.56,68.07a1.6,1.6,0,1,1-1.6-1.6A1.6,1.6,0,0,1,380.56,68.07Z" style="fill:#e0e0e0"></path><rect x="417.19" y="168.62" width="47.52" height="26.33" transform="translate(-17.6 50.58) rotate(-6.44)" style="fill:#fff"></rect><circle cx="440.03" cy="173.66" r="1.64" style="fill:#e0e0e0"></circle><path d="M402.38,183.23c0,.22-8.11.39-18.13.39s-18.13-.17-18.13-.39,8.12-.38,18.13-.38S402.38,183,402.38,183.23Z" style="fill:#e0e0e0"></path><path d="M402.38,189c0,.21-8.11.39-18.13.39s-18.13-.18-18.13-.39,8.12-.38,18.13-.38S402.38,188.76,402.38,189Z" style="fill:#e0e0e0"></path><path d="M402.38,194.71c0,.21-8.11.39-18.13.39s-18.13-.18-18.13-.39,8.12-.38,18.13-.38S402.38,194.5,402.38,194.71Z" style="fill:#e0e0e0"></path><path d="M402.38,200.45c0,.21-8.11.39-18.13.39s-18.13-.18-18.13-.39,8.12-.38,18.13-.38S402.38,200.24,402.38,200.45Z" style="fill:#e0e0e0"></path><path d="M402.38,206.19c0,.21-8.11.39-18.13.39s-18.13-.18-18.13-.39,8.12-.38,18.13-.38S402.38,206,402.38,206.19Z" style="fill:#e0e0e0"></path><path d="M402.38,211.93c0,.21-8.11.39-18.13.39s-18.13-.18-18.13-.39,8.12-.38,18.13-.38S402.38,211.72,402.38,211.93Z" style="fill:#e0e0e0"></path><path d="M402.38,217.67c0,.21-8.11.39-18.13.39s-18.13-.18-18.13-.39,8.12-.38,18.13-.38S402.38,217.46,402.38,217.67Z" style="fill:#e0e0e0"></path><path d="M458.66,177.08c0,.21-8,1.52-17.9,2.92s-18,2.36-18,2.15,8-1.51,17.9-2.91S458.63,176.87,458.66,177.08Z" style="fill:#e0e0e0"></path><path d="M459.38,180.67c0,.21-8,1.52-17.9,2.92s-18,2.36-18,2.15,8-1.51,17.9-2.91S459.35,180.46,459.38,180.67Z" style="fill:#e0e0e0"></path><path d="M460,184c0,.21-8,1.52-17.9,2.91s-18,2.37-18,2.16,8-1.52,17.9-2.92S460,183.78,460,184Z" style="fill:#e0e0e0"></path><path d="M456.84,79.16c0,.22-9.17.39-20.48.39s-20.49-.17-20.49-.39,9.17-.38,20.49-.38S456.84,79,456.84,79.16Z" style="fill:#e0e0e0"></path><path d="M456.84,82.58c0,.21-9.17.38-20.48.38s-20.49-.17-20.49-.38,9.17-.39,20.49-.39S456.84,82.36,456.84,82.58Z" style="fill:#e0e0e0"></path><path d="M456.84,86c0,.21-9.17.39-20.48.39s-20.49-.18-20.49-.39,9.17-.39,20.49-.39S456.84,85.78,456.84,86Z" style="fill:#e0e0e0"></path><path d="M456.84,89.4c0,.22-9.17.39-20.48.39s-20.49-.17-20.49-.39S425,89,436.36,89,456.84,89.19,456.84,89.4Z" style="fill:#e0e0e0"></path><path d="M456.84,92.82c0,.21-9.17.38-20.48.38s-20.49-.17-20.49-.38,9.17-.39,20.49-.39S456.84,92.6,456.84,92.82Z" style="fill:#e0e0e0"></path><path d="M456.84,96.23c0,.21-9.17.38-20.48.38s-20.49-.17-20.49-.38,9.17-.39,20.49-.39S456.84,96,456.84,96.23Z" style="fill:#e0e0e0"></path><path d="M456.84,99.64c0,.21-9.17.39-20.48.39s-20.49-.18-20.49-.39,9.17-.38,20.49-.38S456.84,99.43,456.84,99.64Z" style="fill:#e0e0e0"></path><path d="M456.84,109.77c0,.21-9.17.38-20.48.38s-20.49-.17-20.49-.38,9.17-.39,20.49-.39S456.84,109.56,456.84,109.77Z" style="fill:#e0e0e0"></path><path d="M457.13,113.37c0,.22-9.17.39-20.48.39s-20.49-.17-20.49-.39,9.17-.38,20.49-.38S457.13,113.16,457.13,113.37Z" style="fill:#e0e0e0"></path><path d="M457.42,117c0,.21-9.18.38-20.49.38s-20.48-.17-20.48-.38,9.17-.39,20.48-.39S457.42,116.77,457.42,117Z" style="fill:#e0e0e0"></path><path d="M457.7,120.58c0,.22-9.17.39-20.48.39s-20.48-.17-20.48-.39,9.17-.38,20.48-.38S457.7,120.37,457.7,120.58Z" style="fill:#e0e0e0"></path><path d="M458,124.19c0,.21-9.17.38-20.48.38S417,124.4,417,124.19s9.16-.39,20.48-.39S458,124,458,124.19Z" style="fill:#e0e0e0"></path><path d="M458.28,127.79c0,.22-9.17.39-20.48.39s-20.49-.17-20.49-.39,9.17-.38,20.49-.38S458.28,127.58,458.28,127.79Z" style="fill:#e0e0e0"></path><path d="M170.93,91.76H141.3a3.71,3.71,0,0,1-3.71-3.7V47a3.71,3.71,0,0,1,3.71-3.7h18.79l14.55,15V88.06A3.71,3.71,0,0,1,170.93,91.76Z" style="fill:#f5f5f5"></path><path d="M137.59,77.07h37.05a0,0,0,0,1,0,0V87.23a4.53,4.53,0,0,1-4.53,4.53h-28a4.53,4.53,0,0,1-4.53-4.53V77.07A0,0,0,0,1,137.59,77.07Z" style="fill:#e0e0e0"></path><path d="M150.72,86.55l.93-1.12a1.68,1.68,0,0,0,1.35.8c.67,0,1-.41,1-1.21V81.57h-2.54V80.23h4.21v4.7a2.34,2.34,0,0,1-2.61,2.67A2.93,2.93,0,0,1,150.72,86.55Z" style="fill:#fafafa"></path><path d="M156.69,87l.54-1.16a3.85,3.85,0,0,0,1.94.54c.75,0,1-.2,1-.51,0-.91-3.37,0-3.37-2.2,0-1.06.95-1.81,2.58-1.81a4.54,4.54,0,0,1,2.14.49L161,83.46a3.21,3.21,0,0,0-1.61-.41c-.73,0-1,.22-1,.51,0,1,3.37,0,3.37,2.23,0,1-1,1.77-2.63,1.77A4.84,4.84,0,0,1,156.69,87Z" style="fill:#fafafa"></path><path d="M145.44,69.35,146.6,68a3.49,3.49,0,0,0,2.92,1.66c1.59,0,2.41-1,2.41-2.84V58.94h-5.07V57.19h7v9.52c0,3.12-1.52,4.67-4.39,4.67A4.89,4.89,0,0,1,145.44,69.35Z" style="fill:#fafafa"></path><path d="M156.38,70.09l.8-1.52a6.81,6.81,0,0,0,3.72,1.1c1.79,0,2.53-.54,2.53-1.44,0-2.38-6.71-.32-6.71-4.55,0-1.9,1.7-3.18,4.43-3.18a7.71,7.71,0,0,1,3.86,1L164.19,63a5.54,5.54,0,0,0-3.06-.84c-1.69,0-2.51.62-2.51,1.46,0,2.51,6.73.46,6.73,4.59,0,1.92-1.76,3.15-4.59,3.15A7.65,7.65,0,0,1,156.38,70.09Z" style="fill:#fafafa"></path><path d="M160.09,43.33V54.87a3.45,3.45,0,0,0,3.45,3.45h11.1Z" style="fill:#ebebeb"></path><path d="M160.24,55.88a3.84,3.84,0,0,0,3,3.72c.11,0,.24.06.36.09,1.45.26,11,2,11,1.73v-3.1h-11.1S160.77,58.23,160.24,55.88Z" style="fill:#e0e0e0"></path></g></svg>