<svg xmlns="http://www.w3.org/2000/svg" viewBox="0 0 500 500"><g id="freepik--Files--inject-18"><path d="M248,115.07H197.72a6.29,6.29,0,0,1-6.29-6.29V39.22a6.28,6.28,0,0,1,6.29-6.28h31.87l24.67,25.42v50.42A6.29,6.29,0,0,1,248,115.07Z" style="fill:#0078AA"></path><g style="opacity:0.2"><path d="M192.67,90.15H253a1.24,1.24,0,0,1,1.24,1.24v17.2a6.48,6.48,0,0,1-6.48,6.48H197.91a6.48,6.48,0,0,1-6.48-6.48V91.39A1.24,1.24,0,0,1,192.67,90.15Z"></path></g><g style="opacity:0.2"><path d="M229.59,32.94V52.51a5.84,5.84,0,0,0,5.84,5.85h18.83Z" style="fill:#fff"></path></g><g style="opacity:0.2"><path d="M229.84,54.23S229.6,59,235,60.54a6.21,6.21,0,0,0,.62.14c2.46.44,18.64,3.31,18.64,2.94V58.36H235.43S230.73,58.2,229.84,54.23Z"></path></g><path d="M209.41,101a5.38,5.38,0,0,1,9.33-3.33L217.29,99a3.16,3.16,0,0,0-2.46-1.14,3.13,3.13,0,1,0,0,6.25,3.12,3.12,0,0,0,2.46-1.16l1.45,1.34a5.37,5.37,0,0,1-9.33-3.3Z" style="fill:#fafafa"></path><path d="M219.4,104.93l.77-1.7a5.73,5.73,0,0,0,3.23,1c1.34,0,1.88-.44,1.88-1,0-1.83-5.68-.57-5.68-4.2,0-1.67,1.34-3,4.12-3a6.57,6.57,0,0,1,3.39.87l-.7,1.72a5.49,5.49,0,0,0-2.71-.77c-1.34,0-1.85.5-1.85,1.11,0,1.8,5.68.56,5.68,4.15,0,1.63-1.36,3-4.15,3A7,7,0,0,1,219.4,104.93Z" style="fill:#fafafa"></path><path d="M228.31,104.93l.76-1.7a5.78,5.78,0,0,0,3.23,1c1.34,0,1.88-.44,1.88-1,0-1.83-5.68-.57-5.68-4.2,0-1.67,1.34-3,4.12-3a6.57,6.57,0,0,1,3.39.87l-.7,1.72a5.46,5.46,0,0,0-2.71-.77c-1.34,0-1.85.5-1.85,1.11,0,1.8,5.68.56,5.68,4.15,0,1.63-1.35,3-4.15,3A6.92,6.92,0,0,1,228.31,104.93Z" style="fill:#fafafa"></path><path d="M212.6,69.38c1,.32,1.51,1,1.51,2.52v3.59a1.48,1.48,0,0,0,1.64,1.66h.4v2.74h-1.3c-2.81,0-4.24-1.44-4.24-4V71.81a.92.92,0,0,0-1-1.06h-.74V68h.74a.91.91,0,0,0,1-1.05V62.89c0-2.58,1.43-4,4.24-4h1.3v2.73h-.4a1.48,1.48,0,0,0-1.64,1.67v3.59C214.11,68.42,213.64,69.07,212.6,69.38Z" style="fill:#fafafa"></path><path d="M236.81,68v2.74h-.75c-.6,0-1,.34-1,1.06v4.06c0,2.58-1.44,4-4.25,4h-1.3V77.15h.41a1.48,1.48,0,0,0,1.64-1.66V71.9c0-1.55.47-2.2,1.5-2.52-1-.31-1.5-1-1.5-2.51V63.28a1.48,1.48,0,0,0-1.64-1.67h-.41V58.88h1.3c2.81,0,4.25,1.43,4.25,4V67c0,.72.38,1.05,1,1.05Z" style="fill:#fafafa"></path><path d="M318.34,165.57h-51a6.38,6.38,0,0,1-6.38-6.39V88.57a6.38,6.38,0,0,1,6.38-6.38h32.35l25,25.81v51.18A6.38,6.38,0,0,1,318.34,165.57Z" style="fill:#0078AA"></path><g style="opacity:0.2"><path d="M260.95,140.27h63.78a0,0,0,0,1,0,0v18.4a6.9,6.9,0,0,1-6.9,6.9h-50a6.9,6.9,0,0,1-6.9-6.9v-18.4A0,0,0,0,1,260.95,140.27Z"></path></g><g style="opacity:0.2"><path d="M299.68,82.19v19.87a5.94,5.94,0,0,0,5.94,5.94h19.1Z" style="fill:#fff"></path></g><g style="opacity:0.2"><path d="M299.94,103.81s-.25,4.82,5.24,6.4a5.82,5.82,0,0,0,.63.14c2.49.45,18.91,3.37,18.91,3V108h-19.1S300.85,107.84,299.94,103.81Z"></path></g><path d="M287.14,119.38l-7.66,2.8,7.66,2.78v2.88l-10.95-4.16v-3l10.95-4.16Z" style="fill:#fafafa"></path><path d="M295.37,110.87h3.19L291,132.53h-3.19Z" style="fill:#fafafa"></path><path d="M309.92,120.69v3L299,127.84V125l7.66-2.78-7.66-2.8v-2.85Z" style="fill:#fafafa"></path><path d="M284.53,149.68v8.57h-2v-3.51h-3.89v3.51h-2v-8.57h2v3.38h3.89v-3.38Z" style="fill:#fafafa"></path><path d="M288.34,151.3H285.6v-1.62h7.47v1.62h-2.75v6.95h-2Z" style="fill:#fafafa"></path><path d="M301.93,158.25v-5.14l-2.52,4.24h-.9L296,153.22v5h-1.86v-8.57h1.64L299,155l3.16-5.33h1.63l0,8.57Z" style="fill:#fafafa"></path><path d="M305.82,149.68h2v7h4.3v1.61h-6.29Z" style="fill:#fafafa"></path></g></svg>