<svg xmlns="http://www.w3.org/2000/svg" viewBox="0 0 500 500"><g id="freepik--Tabs--inject-18"><rect x="43.03" y="108.37" width="98.74" height="159.15" rx="3.06" style="fill:#fff"></rect><path d="M46.64,108.37H138.3a3.47,3.47,0,0,1,3.47,3.47v14.31a0,0,0,0,1,0,0H43a0,0,0,0,1,0,0V112A3.61,3.61,0,0,1,46.64,108.37Z" style="fill:#e0e0e0"></path><path d="M138.46,267.52a4,4,0,0,0,1.27-.28,3.34,3.34,0,0,0,2-3c0-3.41,0-8.42-.05-14.87,0-12.91,0-31.58-.08-54.65s0-50.56-.06-81.07v-1.43a4.63,4.63,0,0,0-.12-1.36,3.1,3.1,0,0,0-3-2.24h-92a3,3,0,0,0-3,2.8c0,.51,0,1.08,0,1.62v44.83c0,16.6,0,32.62,0,47.88s0,29.75,0,43.32c0,3.39,0,6.73,0,10v4.86a3.15,3.15,0,0,0,2.46,3.31,15.76,15.76,0,0,0,2.3.07H63.76l54.66.08,14.86.05,3.86,0,1.32,0-1.32,0-3.86,0-14.86.05-54.66.08H48a17.67,17.67,0,0,1-2.39-.08,3.5,3.5,0,0,1-2.07-1.32,3.6,3.6,0,0,1-.71-2.38c0-1.6,0-3.22,0-4.86v-10c0-13.57,0-28.07,0-43.32s0-31.28,0-47.88q0-12.47,0-25.33v-19.5c0-.55,0-1.07,0-1.66a3.51,3.51,0,0,1,.57-1.66,3.58,3.58,0,0,1,3-1.62h92.05a3.55,3.55,0,0,1,1.51.31,3.59,3.59,0,0,1,2,2.28,5.5,5.5,0,0,1,.13,1.49v1.43c0,30.51,0,58-.06,81.07s-.06,41.74-.08,54.65c0,6.45,0,11.46-.05,14.87a3.36,3.36,0,0,1-.76,2.09,3.51,3.51,0,0,1-1.31,1,3.86,3.86,0,0,1-1,.23Z" style="fill:#263238"></path><path d="M57.59,118.65a2.92,2.92,0,1,1-2.92-2.92A2.91,2.91,0,0,1,57.59,118.65Z" style="fill:#fff"></path><circle cx="63.64" cy="118.65" r="2.91" style="fill:#fff"></circle><circle cx="72.6" cy="118.65" r="2.91" style="fill:#fff"></circle><path d="M86,150.26H67.81a2,2,0,0,1-2-2h0a2,2,0,0,1,2-2H86a2,2,0,0,1,2,2h0A2,2,0,0,1,86,150.26Z" style="fill:#263238"></path><path d="M86,160.59H67.81a2,2,0,0,1-2-2h0a2,2,0,0,1,2-2H86a2,2,0,0,1,2,2h0A2,2,0,0,1,86,160.59Z" style="fill:#e0e0e0"></path><path d="M86.52,188.88H68.33a2,2,0,0,1-2-2h0a2,2,0,0,1,2-2H86.52a2,2,0,0,1,2,2h0A2,2,0,0,1,86.52,188.88Z" style="fill:#e0e0e0"></path><path d="M86,171.26H67.81a2,2,0,0,1-2-2h0a2,2,0,0,1,2-2H86a2,2,0,0,1,2,2h0A2,2,0,0,1,86,171.26Z" style="fill:#0078AA"></path><path d="M86,230.78H67.81a2,2,0,0,1-2-2h0a2,2,0,0,1,2-2H86a2,2,0,0,1,2,2h0A2,2,0,0,1,86,230.78Z" style="fill:#0078AA"></path><path d="M115.13,150.26H96.94a2,2,0,0,1-2-2h0a2,2,0,0,1,2-2h18.19a2,2,0,0,1,2,2h0A2,2,0,0,1,115.13,150.26Z" style="fill:#455a64"></path><path d="M134.82,160.59h-38a1.89,1.89,0,0,1-1.8-2h0a1.89,1.89,0,0,1,1.8-2h38.05a1.89,1.89,0,0,1,1.8,2h0A1.89,1.89,0,0,1,134.82,160.59Z" style="fill:#263238"></path><path d="M133.79,171.26H95.49a1.91,1.91,0,0,1-1.86-2h0a1.91,1.91,0,0,1,1.86-2h38.3a1.91,1.91,0,0,1,1.86,2h0A1.91,1.91,0,0,1,133.79,171.26Z" style="fill:#e0e0e0"></path><path d="M106.12,179.89H67.82a1.91,1.91,0,0,1-1.86-2h0a1.91,1.91,0,0,1,1.86-2h38.3a1.91,1.91,0,0,1,1.86,2h0A1.91,1.91,0,0,1,106.12,179.89Z" style="fill:#e0e0e0"></path><path d="M58.9,148.29a2,2,0,1,1-2-2A2,2,0,0,1,58.9,148.29Z" style="fill:#455a64"></path><path d="M58.9,138.41a2,2,0,1,1-2-2A2,2,0,0,1,58.9,138.41Z" style="fill:#455a64"></path><path d="M58.9,158.59a2,2,0,1,1-2-2A2,2,0,0,1,58.9,158.59Z" style="fill:#455a64"></path><path d="M58.9,169.29a2,2,0,1,1-2-2A2,2,0,0,1,58.9,169.29Z" style="fill:#455a64"></path><path d="M86.52,217.76H68.33a2,2,0,0,1-2-2h0a2,2,0,0,1,2-2H86.52a2,2,0,0,1,2,2h0A2,2,0,0,1,86.52,217.76Z" style="fill:#e0e0e0"></path><path d="M86,200.14H67.81a2,2,0,0,1-2-2h0a2,2,0,0,1,2-2H86a2,2,0,0,1,2,2h0A2,2,0,0,1,86,200.14Z" style="fill:#0078AA"></path><path d="M133.79,200.14H95.49a1.91,1.91,0,0,1-1.86-2h0a1.91,1.91,0,0,1,1.86-2h38.3a1.91,1.91,0,0,1,1.86,2h0A1.91,1.91,0,0,1,133.79,200.14Z" style="fill:#e0e0e0"></path><path d="M106.12,208.77H67.82a1.91,1.91,0,0,1-1.86-2h0a1.91,1.91,0,0,1,1.86-2h38.3a1.91,1.91,0,0,1,1.86,2h0A1.91,1.91,0,0,1,106.12,208.77Z" style="fill:#e0e0e0"></path><path d="M58.9,198.17a2,2,0,1,1-2-2A2,2,0,0,1,58.9,198.17Z" style="fill:#455a64"></path><rect x="65.95" y="136.99" width="13.3" height="3.81" rx="0.96" style="fill:#455a64"></rect><path d="M86,241.29H67.81a2,2,0,0,1-2-2h0a2,2,0,0,1,2-2H86a2,2,0,0,1,2,2h0A2,2,0,0,1,86,241.29Z" style="fill:#263238"></path><path d="M115.13,241.29H96.94a2,2,0,0,1-2-2h0a2,2,0,0,1,2-2h18.19a2,2,0,0,1,2,2h0A2,2,0,0,1,115.13,241.29Z" style="fill:#455a64"></path><path d="M58.9,239.32a2,2,0,1,1-2-2A2,2,0,0,1,58.9,239.32Z" style="fill:#455a64"></path><path d="M58.9,248.82a2,2,0,1,1-2-2A2,2,0,0,1,58.9,248.82Z" style="fill:#455a64"></path><rect x="65.95" y="247.4" width="13.3" height="3.81" rx="0.96" style="fill:#455a64"></rect><rect x="148.36" y="242.95" width="180.35" height="114.72" style="fill:#fff"></rect><rect x="148.36" y="242.95" width="32.48" height="114.72" style="fill:#ebebeb"></rect><path d="M162.64,255.33a2.14,2.14,0,0,1,.54-.23l.11-.54h.9l.14.53a2.27,2.27,0,0,1,.54.22l.46-.3.65.62-.28.47a2.14,2.14,0,0,1,.23.54l.54.11v.91l-.53.13a2,2,0,0,1-.21.55l.3.45-.63.65-.47-.28a2.17,2.17,0,0,1-.54.24l-.11.53-.91,0-.13-.53a2.27,2.27,0,0,1-.54-.22l-.46.3-.65-.63.28-.47a2.14,2.14,0,0,1-.23-.54l-.54-.11v-.9l.53-.13a2.16,2.16,0,0,1,.21-.55l-.3-.46.63-.65.47.28Zm.48,1.21a1,1,0,0,0,0,1.37,1,1,0,0,0,1.38,0,1,1,0,0,0-1.4-1.35Z" style="fill:#e0e0e0"></path><path d="M170.14,280.68H156a1.45,1.45,0,0,1-1.45-1.46h0a1.45,1.45,0,0,1,1.45-1.45h14.16a1.45,1.45,0,0,1,1.46,1.45h0A1.46,1.46,0,0,1,170.14,280.68Z" style="fill:#e0e0e0"></path><path d="M170.14,273.27H156a1.46,1.46,0,0,1-1.45-1.46h0a1.45,1.45,0,0,1,1.45-1.45h14.16a1.45,1.45,0,0,1,1.46,1.45h0A1.46,1.46,0,0,1,170.14,273.27Z" style="fill:#e0e0e0"></path><path d="M170.14,266.48H156a1.45,1.45,0,0,1-1.45-1.45h0a1.46,1.46,0,0,1,1.45-1.46h14.16A1.46,1.46,0,0,1,171.6,265h0A1.45,1.45,0,0,1,170.14,266.48Z" style="fill:#e0e0e0"></path><path d="M208.19,259.9H194.77a1.45,1.45,0,0,1-1.45-1.45h0a1.45,1.45,0,0,1,1.45-1.46h13.42a1.45,1.45,0,0,1,1.45,1.46h0A1.45,1.45,0,0,1,208.19,259.9Z" style="fill:#263238"></path><path d="M208.19,267.52H194.77a1.45,1.45,0,0,1-1.45-1.46h0a1.45,1.45,0,0,1,1.45-1.45h13.42a1.45,1.45,0,0,1,1.45,1.45h0A1.45,1.45,0,0,1,208.19,267.52Z" style="fill:#e0e0e0"></path><path d="M208.19,275.39H194.77a1.45,1.45,0,0,1-1.45-1.45h0a1.45,1.45,0,0,1,1.45-1.46h13.42a1.45,1.45,0,0,1,1.45,1.46h0A1.45,1.45,0,0,1,208.19,275.39Z" style="fill:#0078AA"></path><path d="M202.47,290.61h-7.7a1.45,1.45,0,0,1-1.45-1.46h0a1.45,1.45,0,0,1,1.45-1.45h7.7a1.45,1.45,0,0,1,1.45,1.45h0A1.45,1.45,0,0,1,202.47,290.61Z" style="fill:#263238"></path><path d="M202.47,298.5h-7.7a1.45,1.45,0,0,1-1.45-1.46h0a1.45,1.45,0,0,1,1.45-1.45h7.7a1.45,1.45,0,0,1,1.45,1.45h0A1.45,1.45,0,0,1,202.47,298.5Z" style="fill:#263238"></path><path d="M225.32,298.5h-14.1a1.46,1.46,0,0,1-1.46-1.46h0a1.46,1.46,0,0,1,1.46-1.45h14.1a1.45,1.45,0,0,1,1.46,1.45h0A1.46,1.46,0,0,1,225.32,298.5Z" style="fill:#e0e0e0"></path><path d="M217.35,305.51H203.24a1.45,1.45,0,0,1-1.45-1.45h0a1.46,1.46,0,0,1,1.45-1.46h14.11a1.46,1.46,0,0,1,1.45,1.46h0A1.45,1.45,0,0,1,217.35,305.51Z" style="fill:#0078AA"></path><rect x="209.79" y="310.61" width="11.67" height="2.91" rx="0.99" style="fill:#0078AA"></rect><path d="M220,329.2h-8.76a1.46,1.46,0,0,1-1.46-1.46h0a1.45,1.45,0,0,1,1.46-1.45H220a1.45,1.45,0,0,1,1.45,1.45h0A1.45,1.45,0,0,1,220,329.2Z" style="fill:#0078AA"></path><path d="M220,345.76h-8.76a1.45,1.45,0,0,1-1.46-1.45h0a1.46,1.46,0,0,1,1.46-1.46H220a1.45,1.45,0,0,1,1.45,1.46h0A1.45,1.45,0,0,1,220,345.76Z" style="fill:#0078AA"></path><path d="M241.55,345.76H226.19a1.45,1.45,0,0,1-1.46-1.45h0a1.46,1.46,0,0,1,1.46-1.46h15.36a1.45,1.45,0,0,1,1.45,1.46h0A1.45,1.45,0,0,1,241.55,345.76Z" style="fill:#455a64"></path><path d="M252.3,345.76h-2.21a1.45,1.45,0,0,1-1.46-1.45h0a1.46,1.46,0,0,1,1.46-1.46h2.21a1.46,1.46,0,0,1,1.46,1.46h0A1.46,1.46,0,0,1,252.3,345.76Z" style="fill:#e0e0e0"></path><path d="M240.63,329.2h-13a1.46,1.46,0,0,1-1.46-1.46h0a1.45,1.45,0,0,1,1.46-1.45h13a1.45,1.45,0,0,1,1.45,1.45h0A1.45,1.45,0,0,1,240.63,329.2Z" style="fill:#e0e0e0"></path><path d="M269.1,336.47H227.65a1.46,1.46,0,0,1-1.46-1.46h0a1.45,1.45,0,0,1,1.46-1.45H269.1a1.45,1.45,0,0,1,1.45,1.45h0A1.45,1.45,0,0,1,269.1,336.47Z" style="fill:#e0e0e0"></path><path d="M273.88,329.2H247.42a1.46,1.46,0,0,1-1.46-1.46h0a1.46,1.46,0,0,1,1.46-1.45h26.46a1.45,1.45,0,0,1,1.46,1.45h0A1.46,1.46,0,0,1,273.88,329.2Z" style="fill:#455a64"></path><rect x="225.27" y="310.61" width="13.87" height="2.91" rx="0.99" style="fill:#455a64"></rect><rect x="243" y="310.61" width="5.63" height="2.91" rx="0.99" style="fill:#e0e0e0"></rect><rect x="252.92" y="310.61" width="16.62" height="2.91" rx="0.99" style="fill:#e0e0e0"></rect><path d="M226.9,305.51h-3.14a1.45,1.45,0,0,1-1.46-1.45h0a1.46,1.46,0,0,1,1.46-1.46h3.14a1.46,1.46,0,0,1,1.45,1.46h0A1.45,1.45,0,0,1,226.9,305.51Z" style="fill:#263238"></path><path d="M253.52,305.51h-20a1.45,1.45,0,0,1-1.45-1.45h0a1.46,1.46,0,0,1,1.45-1.46h20a1.47,1.47,0,0,1,1.46,1.46h0A1.46,1.46,0,0,1,253.52,305.51Z" style="fill:#e0e0e0"></path><path d="M229.67,259.9H216.26a1.45,1.45,0,0,1-1.45-1.45h0a1.45,1.45,0,0,1,1.45-1.46h13.41a1.46,1.46,0,0,1,1.46,1.46h0A1.45,1.45,0,0,1,229.67,259.9Z" style="fill:#455a64"></path><path d="M247,267.52H216.26a1.45,1.45,0,0,1-1.45-1.46h0a1.45,1.45,0,0,1,1.45-1.45H247a1.45,1.45,0,0,1,1.46,1.45h0A1.46,1.46,0,0,1,247,267.52Z" style="fill:#263238"></path><path d="M280,275.39H216.26a1.45,1.45,0,0,1-1.45-1.45h0a1.45,1.45,0,0,1,1.45-1.46H280a1.45,1.45,0,0,1,1.45,1.46h0A1.45,1.45,0,0,1,280,275.39Z" style="fill:#e0e0e0"></path><path d="M246.31,280.94H216.26a1.46,1.46,0,0,1-1.45-1.46h0a1.45,1.45,0,0,1,1.45-1.45h30.05a1.45,1.45,0,0,1,1.46,1.45h0A1.46,1.46,0,0,1,246.31,280.94Z" style="fill:#e0e0e0"></path><path d="M240.17,290.61H210.11a1.45,1.45,0,0,1-1.45-1.46h0a1.45,1.45,0,0,1,1.45-1.45h30.06a1.45,1.45,0,0,1,1.45,1.45h0A1.45,1.45,0,0,1,240.17,290.61Z" style="fill:#455a64"></path><path d="M257,290.61H246.92a1.46,1.46,0,0,1-1.46-1.46h0a1.45,1.45,0,0,1,1.46-1.45H257a1.46,1.46,0,0,1,1.46,1.45h0A1.46,1.46,0,0,1,257,290.61Z" style="fill:#0078AA"></path><path d="M282.75,290.56h-19a1.45,1.45,0,0,1-1.46-1.45h0a1.46,1.46,0,0,1,1.46-1.46h19a1.45,1.45,0,0,1,1.45,1.46h0A1.45,1.45,0,0,1,282.75,290.56Z" style="fill:#263238"></path><path d="M308.64,290.56h-19a1.45,1.45,0,0,1-1.45-1.45h0a1.45,1.45,0,0,1,1.45-1.46h19a1.46,1.46,0,0,1,1.46,1.46h0A1.45,1.45,0,0,1,308.64,290.56Z" style="fill:#e0e0e0"></path><path d="M164,288.53h-8a1.46,1.46,0,0,1-1.45-1.46h0a1.45,1.45,0,0,1,1.45-1.45h8a1.45,1.45,0,0,1,1.45,1.45h0A1.46,1.46,0,0,1,164,288.53Z" style="fill:#e0e0e0"></path><path d="M161.61,312.07H156a1.45,1.45,0,0,1-1.45-1.46h0a1.45,1.45,0,0,1,1.45-1.45h5.63a1.45,1.45,0,0,1,1.45,1.45h0A1.45,1.45,0,0,1,161.61,312.07Z" style="fill:#e0e0e0"></path><path d="M171.6,296.37H156a1.45,1.45,0,0,1-1.45-1.45h0a1.45,1.45,0,0,1,1.45-1.46H171.6a1.45,1.45,0,0,1,1.45,1.46h0A1.45,1.45,0,0,1,171.6,296.37Z" style="fill:#e0e0e0"></path><path d="M168.86,304.22H156a1.45,1.45,0,0,1-1.45-1.45h0a1.45,1.45,0,0,1,1.45-1.46h12.88a1.45,1.45,0,0,1,1.45,1.46h0A1.45,1.45,0,0,1,168.86,304.22Z" style="fill:#e0e0e0"></path><path d="M188.2,258.45a1.48,1.48,0,1,1-1.48-1.48A1.48,1.48,0,0,1,188.2,258.45Z" style="fill:#455a64"></path><circle cx="186.72" cy="250.68" r="1.48" style="fill:#455a64"></circle><circle cx="186.72" cy="266.04" r="1.48" style="fill:#455a64"></circle><circle cx="186.72" cy="273.94" r="1.48" style="fill:#455a64"></circle><circle cx="186.72" cy="281.83" r="1.48" style="fill:#455a64"></circle><path d="M188.2,289.72a1.48,1.48,0,1,1-1.48-1.47A1.48,1.48,0,0,1,188.2,289.72Z" style="fill:#455a64"></path><circle cx="186.72" cy="297.62" r="1.48" style="fill:#455a64"></circle><circle cx="186.72" cy="305.51" r="1.48" style="fill:#455a64"></circle><path d="M188.2,313.41a1.48,1.48,0,1,1-1.48-1.48A1.48,1.48,0,0,1,188.2,313.41Z" style="fill:#455a64"></path><path d="M188.2,321.3a1.48,1.48,0,1,1-1.48-1.48A1.48,1.48,0,0,1,188.2,321.3Z" style="fill:#455a64"></path><circle cx="186.72" cy="329.2" r="1.48" style="fill:#455a64"></circle><path d="M188.2,337.09a1.48,1.48,0,1,1-1.48-1.48A1.48,1.48,0,0,1,188.2,337.09Z" style="fill:#455a64"></path><circle cx="186.72" cy="344.99" r="1.48" style="fill:#455a64"></circle><path d="M153.77,227.31H324.88a3.83,3.83,0,0,1,3.83,3.83V243a0,0,0,0,1,0,0H148.36a0,0,0,0,1,0,0V232.71A5.4,5.4,0,0,1,153.77,227.31Z" style="fill:#e0e0e0"></path><circle cx="157.68" cy="235.61" r="2.15" style="fill:#fff"></circle><path d="M166.44,235.61a2.15,2.15,0,1,1-2.15-2.15A2.14,2.14,0,0,1,166.44,235.61Z" style="fill:#fff"></path><path d="M173.05,235.61a2.15,2.15,0,1,1-2.15-2.15A2.14,2.14,0,0,1,173.05,235.61Z" style="fill:#fff"></path><polygon points="186.72 355.88 201.97 372.37 215.8 355.88 186.72 355.88" style="fill:#fff"></polygon><path d="M323.82,357.68a6.28,6.28,0,0,0,1.58-.3,4.87,4.87,0,0,0,3.08-3.31,5,5,0,0,0,.17-1.62v-1.84c0-1.29,0-2.7,0-4.22,0-3.05,0-6.57,0-10.53,0-15.85-.05-38.77-.08-67.1q0-10.62,0-22.23,0-5.81,0-11.83c0-1,0-2,0-3a4.68,4.68,0,0,0-3.68-4.07,20.55,20.55,0,0,0-3.06-.1l-53.18,0-58.77,0h-55c-.66,0-1.37,0-2,0a4.57,4.57,0,0,0-1.81.57,4.65,4.65,0,0,0-2.23,3,13.86,13.86,0,0,0-.13,2.76v41.58q0,21.75,0,42.44v20.33q0,5,0,9.93c0,1.63,0,3.28,0,4.88a4.63,4.63,0,0,0,2.33,3.75,4.57,4.57,0,0,0,2.19.61h34.77l.07.07,14,14.7h-.31L214,357.55l.06-.07h.09l80.17.08,21.89.06,5.7,0,1.94,0-1.94,0-5.7,0-21.89.06-80.17.08.15-.07L202,372.5l-.15.18-.16-.17-14-14.68.16.07h-34.7a5.22,5.22,0,0,1-2.4-.67,5.13,5.13,0,0,1-2.58-4.14c0-1.66,0-3.27,0-4.91v-9.93q0-10,0-20.33V275.49q0-10.87,0-22v-21a6.12,6.12,0,0,1,.14-1.46,5.21,5.21,0,0,1,2.48-3.31,5.15,5.15,0,0,1,2-.64c.73-.05,1.36,0,2,0H268.55l53.18,0a19.56,19.56,0,0,1,3.14.11,5.1,5.1,0,0,1,4,4.44c.06,1.06,0,2,0,3q0,6,0,11.83,0,11.6,0,22.23c0,28.33-.07,51.25-.09,67.1,0,4,0,7.48,0,10.53,0,1.52,0,2.93,0,4.22v1.84a5.19,5.19,0,0,1-.19,1.65,4.81,4.81,0,0,1-1.45,2.33,4.7,4.7,0,0,1-1.71,1,4.82,4.82,0,0,1-1.19.24Z" style="fill:#263238"></path><path d="M162.53,128.49H298.77a3.17,3.17,0,0,1,3.17,3.17v68.53a3.79,3.79,0,0,1-3.79,3.79H162.53a3.17,3.17,0,0,1-3.17-3.17V131.66A3.17,3.17,0,0,1,162.53,128.49Z" style="fill:#fff"></path><path d="M162.83,128.49H298.47a3.47,3.47,0,0,1,3.47,3.47V144.7a0,0,0,0,1,0,0H159.36a0,0,0,0,1,0,0V132A3.47,3.47,0,0,1,162.83,128.49Z" style="fill:#e0e0e0"></path><path d="M297.93,204a6.79,6.79,0,0,0,1.09-.19,3.94,3.94,0,0,0,2.41-2,4.32,4.32,0,0,0,.44-2.3c0-.89,0-1.85,0-2.9,0-2.09,0-4.51,0-7.23,0-10.88,0-26.61-.08-46.05q0-3.65,0-7.47c0-1.27,0-2.55,0-3.85a3,3,0,0,0-1.73-3,4,4,0,0,0-1.87-.28H283.59l-36.5,0-83.64,0a5.63,5.63,0,0,0-1.32.09,3.26,3.26,0,0,0-2.47,2.66,8.39,8.39,0,0,0,0,1.34v15q0,10.83,0,21.34v20.6q0,5,0,10a3.8,3.8,0,0,0,2.35,3.65,5.51,5.51,0,0,0,2.31.27h2.42l68.31,0,46.05.08,12.52,0,3.26,0,1.11,0-1.11,0-3.26,0-12.52.05-46.05.08-68.31.06h-2.42a6.17,6.17,0,0,1-2.49-.31,4.31,4.31,0,0,1-2.66-4.1v-10c0-6.73,0-13.61,0-20.6V132.84a8.58,8.58,0,0,1,.05-1.42,3.73,3.73,0,0,1,2.86-3.08,5.51,5.51,0,0,1,1.44-.11l83.64,0,36.5,0h14.55a4.16,4.16,0,0,1,2,.32,3.44,3.44,0,0,1,2,3.39c0,1.3,0,2.58,0,3.85q0,3.83,0,7.47c0,19.44-.06,35.17-.08,46.05,0,2.72,0,5.14,0,7.23,0,1.05,0,2,0,2.9a5.86,5.86,0,0,1-.08,1.27,4.45,4.45,0,0,1-.39,1.08,4.09,4.09,0,0,1-2.5,2A3.29,3.29,0,0,1,297.93,204Z" style="fill:#263238"></path><circle cx="169.97" cy="137.86" r="2.66" style="fill:#fff"></circle><path d="M180.79,137.86a2.66,2.66,0,1,1-2.65-2.66A2.65,2.65,0,0,1,180.79,137.86Z" style="fill:#fff"></path><circle cx="186.31" cy="137.86" r="2.66" style="fill:#fff"></circle><path d="M200.44,167.54H183.87a1.79,1.79,0,0,1-1.8-1.79h0a1.79,1.79,0,0,1,1.8-1.8h16.57a1.8,1.8,0,0,1,1.8,1.8h0A1.8,1.8,0,0,1,200.44,167.54Z" style="fill:#263238"></path><path d="M200.44,177H183.87a1.8,1.8,0,0,1-1.8-1.8h0a1.8,1.8,0,0,1,1.8-1.8h16.57a1.81,1.81,0,0,1,1.8,1.8h0A1.81,1.81,0,0,1,200.44,177Z" style="fill:#e0e0e0"></path><path d="M287.94,167.54H239.86a1.8,1.8,0,0,1-1.8-1.79h0a1.8,1.8,0,0,1,1.8-1.8h48.08a1.8,1.8,0,0,1,1.8,1.8h0A1.8,1.8,0,0,1,287.94,167.54Z" style="fill:#e0e0e0"></path><path d="M200.44,186.69H183.87a1.8,1.8,0,0,1-1.8-1.8h0a1.79,1.79,0,0,1,1.8-1.8h16.57a1.8,1.8,0,0,1,1.8,1.8h0A1.81,1.81,0,0,1,200.44,186.69Z" style="fill:#0078AA"></path><path d="M276.47,177H259.89a1.8,1.8,0,0,1-1.79-1.8h0a1.8,1.8,0,0,1,1.79-1.8h16.58a1.81,1.81,0,0,1,1.8,1.8h0A1.81,1.81,0,0,1,276.47,177Z" style="fill:#0078AA"></path><path d="M227,167.54H210.42a1.8,1.8,0,0,1-1.8-1.79h0a1.8,1.8,0,0,1,1.8-1.8H227a1.79,1.79,0,0,1,1.79,1.8h0A1.79,1.79,0,0,1,227,167.54Z" style="fill:#455a64"></path><path d="M248.35,177H210.42a1.81,1.81,0,0,1-1.8-1.8h0a1.81,1.81,0,0,1,1.8-1.8h37.93a1.8,1.8,0,0,1,1.8,1.8h0A1.8,1.8,0,0,1,248.35,177Z" style="fill:#263238"></path><path d="M285.56,186.69H210.34a1.76,1.76,0,0,1-1.72-1.8h0a1.76,1.76,0,0,1,1.72-1.8h75.22a1.75,1.75,0,0,1,1.71,1.8h0A1.76,1.76,0,0,1,285.56,186.69Z" style="fill:#e0e0e0"></path><path d="M247.56,193.54H210.42a1.81,1.81,0,0,1-1.8-1.8h0a1.81,1.81,0,0,1,1.8-1.8h37.14a1.8,1.8,0,0,1,1.8,1.8h0A1.8,1.8,0,0,1,247.56,193.54Z" style="fill:#e0e0e0"></path><path d="M175.74,165.75a1.83,1.83,0,1,1-1.83-1.83A1.83,1.83,0,0,1,175.74,165.75Z" style="fill:#455a64"></path><path d="M175.74,156.74a1.83,1.83,0,1,1-1.83-1.83A1.82,1.82,0,0,1,175.74,156.74Z" style="fill:#455a64"></path><circle cx="173.91" cy="175.13" r="1.83" style="fill:#455a64"></circle><circle cx="173.91" cy="184.89" r="1.83" style="fill:#455a64"></circle><rect x="182.44" y="154.58" width="12.12" height="3.47" rx="0.96" style="fill:#455a64"></rect></g></svg>