<svg id="Layer_1" data-name="Layer 1" xmlns="http://www.w3.org/2000/svg" viewBox="0 0 1444 351" width="1444px" height="351px"><defs><style>.cls-1,.cls-2{fill:none;}.cls-2{stroke:#1a1a1a;stroke-miterlimit:10;stroke-width:0.25px;}.cls-3{fill:#c11a1a;}.cls-4{fill:#e22424;}.cls-5{fill:#fff;}.cls-6{fill:#107010;}</style></defs><title>Logo - ngang 3</title><polyline class="cls-1" points="468.14 88.85 469.5 91.44 469.44 91.53 467.96 88.85 453.15 62.29"/><line class="cls-2" x1="261.34" y1="85.84" x2="261.13" y2="85.84"/><polyline class="cls-1" points="461.59 109.23 462.95 111.82 462.89 111.91 461.4 109.23 446.6 82.67"/><line class="cls-2" x1="254.79" y1="106.22" x2="254.58" y2="106.22"/><polygon class="cls-3" points="330.44 298.88 293.26 298.88 260 241.78 183.6 110.75 183.01 109.73 183 109.72 199.84 79.36 201.13 77.03 321.48 283.5 330.44 298.88"/><polygon class="cls-3" points="164.16 79.11 92.28 208.91 59.06 268.88 57.97 270.87 56.92 269 55.8 266.94 41.91 241.88 40.17 238.79 40.94 237.38 56.27 209.71 72.06 181.16 74.64 176.81 74.58 176.68 111.83 109.36 128.53 79.23 143.54 52.13 179.1 52.13 164.46 78.59 164.16 79.11"/><polygon class="cls-3" points="226.69 268.75 94.94 268.75 109.69 242.15 211.94 242.15 226.69 268.75"/><polygon class="cls-3" points="455.54 82.8 352.44 268.88 349.9 273.5 331.32 241.76 330.74 240.76 330.38 240.15 402.69 109.61 419.64 78.98 288.32 78.98 303.19 52.38 438.56 52.38 453.61 79.36 455.45 82.67 455.54 82.8"/><path d="M329.82,240.15h0l20.13,34.35Zm.27-.51-.14.26.14.25.15-.26Z"/><polygon class="cls-4" points="418.81 79.48 407.14 100.53 402.39 109.11 304.19 109.11 287.92 79.72 288.05 79.48 418.81 79.48"/><polygon class="cls-5" points="471.82 112.03 401.24 239.53 399.94 241.76 399.77 242.15 399.79 242.15 368.36 298.88 331.01 298.88 314.79 271.02 202.91 79.11 201.13 76.03 201.12 76.02 190.41 95.34 187.75 100.14 182.71 109.23 182.44 109.73 94.09 269.25 226.97 269.25 227.19 269.63 210.85 298.88 73.75 298.88 58.38 271.13 179.53 52.38 219.9 52.38 329.81 240.15 349.93 274.5 452.96 88.47 455.82 83.31 470.42 109.47 471.82 112.03"/><polygon class="cls-5" points="330.24 239.88 330.1 240.15 329.94 239.9 330.08 239.63 330.24 239.88"/><polygon class="cls-5" points="330.74 240.76 330.38 240.15 330.74 240.74 330.74 240.76"/><polygon class="cls-5" points="331.32 241.76 330.74 240.76 331.33 241.76 349.9 273.5 331.32 241.76"/><polygon class="cls-5" points="470.42 109.47 471.82 112.03 401.24 239.53 399.94 241.76 399.77 242.15 399.79 242.15 368.36 298.88 331.01 298.88 314.79 271.02 202.91 79.11 201.13 76.03 190.41 95.34 187.75 100.14 182.71 109.23 182.44 109.73 94.09 269.25 226.97 269.25 227.19 269.63 210.85 298.88 73.75 298.88 58.38 271.13 179.53 52.38 219.9 52.38 329.81 240.15 349.93 274.5 352.88 269.12 424.06 140.63 440.63 110.69 452.96 88.47 455.82 83.31 470.42 109.47"/><polygon class="cls-4" points="471.82 112.03 401.24 239.53 399.94 241.76 399.77 242.15 399.79 242.15 368.36 298.88 331.01 298.88 314.79 271.02 202.91 79.11 201.13 76.03 190.41 95.34 187.75 100.14 182.71 109.23 182.44 109.73 94.09 269.25 226.97 269.25 227.19 269.63 210.85 298.88 73.75 298.88 58.38 271.13 179.53 52.38 219.9 52.38 329.81 240.15 349.93 274.5 352.88 269.12 424.06 140.63 440.63 110.69 452.96 88.47 455.82 83.31 470.42 109.47 471.82 112.03"/><path class="cls-6" d="M576.56,156.85a4.91,4.91,0,0,1-4.12-2.24L557,131l.09,2.82c.07,3,.11,6,.11,9v47c0,3.23-1.79,5.08-4.92,5.08s-5-1.85-5-5.08v-64c0-5.29,2.78-8.21,7.84-8.21,3,0,5.5,1.44,7.51,4.28l18,27.27a5,5,0,0,1,.83,2.71C581.48,155,579.69,156.85,576.56,156.85Z"/><path class="cls-6" d="M611.13,122.7v64.37c0,5.06-2.67,7.84-7.52,7.84a8.28,8.28,0,0,1-7.24-4.11l-18.14-27.53a4.56,4.56,0,0,1-.89-2.72c0-3.16,1.81-5,5-5a4.94,4.94,0,0,1,4.11,2.33L601.49,181l-.09-2.59c-.14-2.95-.21-5.9-.21-8.75V122.7c0-3.23,1.82-5.08,5-5.08S611.13,119.47,611.13,122.7Z"/><path class="cls-6" d="M692.41,165a33.49,33.49,0,0,1-7.63,19.58,30.06,30.06,0,0,1-16.91,10.28c-.45.08-.83.14-1.17.18l-1.06.06h0c-3.08,0-4.82-1.72-4.82-4.71a4.52,4.52,0,0,1,4-4.75c10.71-2.09,16.48-8.95,17.61-20.95a91.63,91.63,0,0,0,0-16.89,23.84,23.84,0,0,0-7-15.38,22.14,22.14,0,0,0-30.48,0,24,24,0,0,0-7,15.38,88.15,88.15,0,0,0,0,16.88c1.14,12,6.9,18.87,17.62,21a4.5,4.5,0,0,1,4,4.74c0,3-1.74,4.71-4.77,4.71-.3,0-.67,0-1.1-.06s-.74-.1-1.14-.17a30,30,0,0,1-17-10.29A33.51,33.51,0,0,1,628,165a113.59,113.59,0,0,1,0-17.5,32.85,32.85,0,0,1,9.91-21.87,32.18,32.18,0,0,1,44.56,0,32.81,32.81,0,0,1,9.91,21.88A111.13,111.13,0,0,1,692.41,165Z"/><path class="cls-6" d="M1252,122.59c0,3.16-1.85,5-5.08,5h-35.79v19.51c0,3.23-1.8,5.08-4.92,5.08s-5-1.85-5-5.08V125.46c0-5,2.82-7.84,8-7.84h37.73C1250.11,117.62,1252,119.43,1252,122.59Z"/><path class="cls-6" d="M833.9,184.72a4.71,4.71,0,0,1-1.74,3.7,30.4,30.4,0,0,1-20.67,7.43c-8.93,0-16.38-3-22.16-8.87s-8.86-13.79-8.86-23.2V122.7c0-3.23,1.82-5.08,5-5.08s4.91,1.85,4.91,5.08v40.72c0,6.92,2,12.53,6,16.7a20.21,20.21,0,0,0,15.11,6A20.62,20.62,0,0,0,825.67,181a4.49,4.49,0,0,1,3.26-1.3C832.08,179.74,833.9,181.56,833.9,184.72Z"/><path class="cls-6" d="M1033.69,122.7v67.13c0,3.23-1.79,5.08-4.92,5.08s-5-1.85-5-5.08V122.7c0-3.23,1.81-5.08,5-5.08S1033.69,119.47,1033.69,122.7Z"/><path class="cls-6" d="M1252.17,189.94c0,3.16-1.85,5-5.08,5h-37.94c-5.13,0-8-2.78-8-7.84V162.89a11.48,11.48,0,0,1,3.48-8.37,11.26,11.26,0,0,1,8.34-3.44h33c3.19,0,5,1.78,5,4.87s-1.83,5-5,5h-32.94c-1.5,0-2,.52-2,2V185h36C1250.32,185,1252.17,186.81,1252.17,189.94Z"/><path class="cls-6" d="M1117.53,122.7v64.37c0,5.06-2.67,7.84-7.52,7.84a8.27,8.27,0,0,1-7.24-4.11l-18.15-27.53a4.68,4.68,0,0,1-.89-2.72c0-3.16,1.81-5,5-5a5,5,0,0,1,4.12,2.33L1107.89,181l-.09-2.59c-.14-2.95-.21-5.9-.21-8.75V122.7c0-3.23,1.81-5.08,5-5.08S1117.53,119.47,1117.53,122.7Z"/><path class="cls-6" d="M907,127.08c0,3.09-1.85,4.87-5.08,4.87a4.12,4.12,0,0,1-1.9-.5l-1.29-.78a31,31,0,0,0-6.82-3.06,28,28,0,0,0-8.26-1.25c-5.86,0-10.2,1.23-12.93,3.67-2.21,2-3.29,4.71-3.29,8.27,0,3.11.92,5.4,2.81,7,2.07,1.74,6,3.31,11.55,4.65a4.85,4.85,0,0,1,3.8,5,4.72,4.72,0,0,1-1.53,3.9,4.47,4.47,0,0,1-2.9.9,9.23,9.23,0,0,1-1.94-.22c-14.57-3.3-21.94-10.39-21.94-21.07,0-6.65,2.46-12.05,7.34-16,4.72-3.85,11-5.81,18.77-5.81,9.22,0,16.54,2.15,21.75,6.39A5,5,0,0,1,907,127.08Z"/><path class="cls-6" d="M913.83,174a19.23,19.23,0,0,1-8,16.06c-5.07,3.83-11.71,5.78-19.73,5.78a52.68,52.68,0,0,1-16.2-2.51,33.43,33.43,0,0,1-11.43-6,4.83,4.83,0,0,1-1.83-4.05c0-3.06,1.85-4.81,5.07-4.81a5.85,5.85,0,0,1,3.25,1.25,31.73,31.73,0,0,0,8.83,4.55,38.46,38.46,0,0,0,12.09,1.87c5.92,0,10.53-1.28,13.71-3.81a10.1,10.1,0,0,0,4.09-8.35,9.3,9.3,0,0,0-2.89-7.3c-2.14-1.94-6-3.58-11.48-4.88a4.85,4.85,0,0,1-3.81-5.05,4.77,4.77,0,0,1,1.54-3.9c1.11-.89,2.74-1.11,4.84-.67C906.44,155.51,913.83,162.84,913.83,174Z"/><path class="cls-6" d="M771,120.52a5,5,0,0,1-.19,3.94l-24.48,63.46c-2.18,5.44-5.57,8.19-10.11,8.19s-8-2.75-10.11-8.18l-24.48-63.49a4.51,4.51,0,0,1,2.83-6.52c3-1.14,5.34-.11,6.48,2.83l25,65.36c.11.27.17.27.28.27s.14-.06.23-.28l25.06-65.35c1.14-2.94,3.49-4,6.47-2.84A5,5,0,0,1,771,120.52Z"/><path class="cls-6" d="M1190.26,122.59c0,3.16-1.86,5-5.08,5h-20.82v62.27c0,3.23-1.81,5.08-5,5.08s-4.92-1.85-4.92-5.08V127.56h-21c-3.22,0-5.07-1.81-5.07-5s1.85-5,5.07-5h51.74C1188.4,117.62,1190.26,119.43,1190.26,122.59Z"/><path class="cls-6" d="M967.75,153.21a12.17,12.17,0,0,1,4.17-.71h31.85c3.22,0,5.07,1.81,5.07,5s-1.85,4.91-5.07,4.91H971.92c-1.49,0-2,.53-2,2v25.42c0,3.23-1.79,5.08-4.91,5.08s-5-1.85-5-5.08V164.41a11.53,11.53,0,0,1,3.5-8.43,12,12,0,0,1,3.24-2.34,6.05,6.05,0,0,1-1.76.23c-3.17,0-5-1.85-5-5.07V125.46c0-5,2.82-7.84,8-7.84h37.75c3.22,0,5.07,1.81,5.07,5s-1.85,5-5.07,5H969.89V148.8A4.73,4.73,0,0,1,967.75,153.21Z"/><path class="cls-6" d="M842.57,122.7v41.08a35,35,0,0,1-2.87,14.28,4.62,4.62,0,0,1-4.56,3.07c-3.16,0-5-1.81-5-5a5.47,5.47,0,0,1,.27-1.74,26.58,26.58,0,0,0,2.19-11V122.7c0-3.23,1.81-5.08,5-5.08S842.57,119.47,842.57,122.7Z"/><path class="cls-6" d="M1083,156.85a4.93,4.93,0,0,1-4.13-2.24L1063.41,131l.09,2.82c.07,3,.11,6,.11,9v47c0,3.23-1.8,5.08-4.93,5.08s-5-1.85-5-5.08v-64c0-5.29,2.78-8.21,7.84-8.21,3,0,5.5,1.44,7.51,4.28l18,27.27a5.05,5.05,0,0,1,.83,2.71C1087.88,155,1086.09,156.85,1083,156.85Z"/><path class="cls-6" d="M1264.94,150.73a33.5,33.5,0,0,1,9-24,30.92,30.92,0,0,1,23.44-10c13.65,0,23,6.31,27.85,18.73a5.45,5.45,0,0,1,.41,2.06c0,3-1.76,4.71-4.82,4.71a4.84,4.84,0,0,1-4.67-3.2c-3.51-8.49-9.66-12.62-18.77-12.62a20.39,20.39,0,0,0-16.11,7.06c-4.1,4.59-6.27,10.53-6.43,17.65,0,3.13-1.79,4.94-4.92,4.94S1264.94,154.09,1264.94,150.73Z"/><path class="cls-6" d="M1325.63,175.11a5.36,5.36,0,0,1-.41,2c-4.83,12.41-14.2,18.72-27.85,18.72a30.92,30.92,0,0,1-23.44-10,33.48,33.48,0,0,1-9-24c0-3.33,1.81-5.26,5-5.26s4.92,1.81,4.92,5c.16,7.09,2.33,13,6.43,17.62a20.43,20.43,0,0,0,16.11,7c9.11,0,15.26-4.13,18.77-12.61v0a4.84,4.84,0,0,1,4.67-3.19C1323.87,170.35,1325.63,172.09,1325.63,175.11Z"/><path class="cls-6" d="M1350.58,122.7v67.13c0,3.23-1.79,5.08-4.92,5.08s-5-1.85-5-5.08V122.7c0-3.23,1.81-5.08,5-5.08S1350.58,119.47,1350.58,122.7Z"/><path class="cls-6" d="M1402.68,122.7v67.13c0,3.23-1.81,5.08-5,5.08s-5-1.85-5-5.08V161.24H1356.1c-3.19,0-5-1.81-5-5s1.83-4.91,5-4.91h36.64V122.7c0-3.23,1.81-5.08,5-5.08S1402.68,119.47,1402.68,122.7Z"/><path class="cls-6" d="M572.09,298.71a7,7,0,0,1-4.42-1.32,8.84,8.84,0,0,1-2.72-4l-17.17-48.28a5.9,5.9,0,0,1,.46-5.52q1.57-2.3,5.49-2.3a6.26,6.26,0,0,1,4.2,1.28,9.08,9.08,0,0,1,2.43,4l14,41.74h-3.65l14.79-41.65a10,10,0,0,1,2.5-4,5.74,5.74,0,0,1,4-1.32,5.44,5.44,0,0,1,3.82,1.32,10.29,10.29,0,0,1,2.47,4.12l14.11,41.57h-3.15l14.28-41.74a8.54,8.54,0,0,1,2.38-4,6.17,6.17,0,0,1,4.17-1.32,5.4,5.4,0,0,1,4.84,2.3,5.85,5.85,0,0,1,.34,5.52L617.9,293.44a8.7,8.7,0,0,1-2.55,3.95,6.79,6.79,0,0,1-4.42,1.32,6.62,6.62,0,0,1-4.33-1.32,9.23,9.23,0,0,1-2.64-4l-13.43-38h2L579,293.44a9.54,9.54,0,0,1-2.59,3.95A6.47,6.47,0,0,1,572.09,298.71Z"/><path class="cls-6" d="M652,297.94a6.23,6.23,0,0,1-6.89-6.88V244.9A6.23,6.23,0,0,1,652,238h29.66a5.28,5.28,0,0,1,3.87,1.31,5.12,5.12,0,0,1,1.32,3.79,4.63,4.63,0,0,1-5.19,5.18h-24v14h22a5.37,5.37,0,0,1,3.95,1.31,6.33,6.33,0,0,1,0,7.74,5.37,5.37,0,0,1-3.95,1.32h-22v15h24a5.24,5.24,0,0,1,3.87,1.31,5.12,5.12,0,0,1,1.32,3.79,4.63,4.63,0,0,1-5.19,5.18Z"/><path class="cls-6" d="M726.87,298.71a6.49,6.49,0,0,1-4.93-1.79,7,7,0,0,1-1.7-5V244.05a7,7,0,0,1,1.7-5,6.49,6.49,0,0,1,4.93-1.79,6.35,6.35,0,0,1,4.84,1.79,7,7,0,0,1,1.7,5v47.86a7.11,7.11,0,0,1-1.65,5A6.37,6.37,0,0,1,726.87,298.71Z"/><path class="cls-6" d="M751.6,298.71a6,6,0,0,1-4.54-1.66,6.6,6.6,0,0,1-1.58-4.72V243.88a7,7,0,0,1,1.58-4.93,5.45,5.45,0,0,1,4.2-1.7,6,6,0,0,1,3.53.89,16.1,16.1,0,0,1,2.85,2.94l29.83,38h-2.29V243.54a6.45,6.45,0,0,1,1.57-4.63,7.07,7.07,0,0,1,9.1,0,6.49,6.49,0,0,1,1.57,4.63v49a6.53,6.53,0,0,1-1.45,4.47,4.93,4.93,0,0,1-3.91,1.66,6.78,6.78,0,0,1-3.78-.94,14.06,14.06,0,0,1-3-3l-29.75-38h2.21v35.53a6.72,6.72,0,0,1-1.53,4.72A6,6,0,0,1,751.6,298.71Z"/><path class="cls-6" d="M815.61,298.71a6,6,0,0,1-4.55-1.66,6.6,6.6,0,0,1-1.57-4.72V243.88a7,7,0,0,1,1.57-4.93,5.47,5.47,0,0,1,4.21-1.7,6,6,0,0,1,3.53.89,15.78,15.78,0,0,1,2.84,2.94l29.84,38h-2.3V243.54a6.45,6.45,0,0,1,1.58-4.63,7.05,7.05,0,0,1,9.09,0,6.45,6.45,0,0,1,1.57,4.63v49a6.58,6.58,0,0,1-1.44,4.47,5,5,0,0,1-3.91,1.66,6.73,6.73,0,0,1-3.78-.94,13.63,13.63,0,0,1-3-3l-29.75-38h2.21v35.53a6.72,6.72,0,0,1-1.53,4.72A6,6,0,0,1,815.61,298.71Z"/><path class="cls-6" d="M901.29,298.88A30.38,30.38,0,0,1,885.77,295a26.73,26.73,0,0,1-10.36-10.84,34.09,34.09,0,0,1-3.7-16.23,36.52,36.52,0,0,1,2.08-12.71,27.38,27.38,0,0,1,6-9.69,26.89,26.89,0,0,1,9.4-6.25,32.15,32.15,0,0,1,12.11-2.21,30.78,30.78,0,0,1,15.64,3.83,26.62,26.62,0,0,1,10.33,10.75A33.93,33.93,0,0,1,931,267.85a36.43,36.43,0,0,1-2.12,12.75,28.16,28.16,0,0,1-6,9.78,26.69,26.69,0,0,1-9.35,6.29A32.07,32.07,0,0,1,901.29,298.88Zm0-11.22a14.2,14.2,0,0,0,14-9.14,26.84,26.84,0,0,0,1.91-10.58q0-9.36-4.16-14.5t-11.73-5.14a15.37,15.37,0,0,0-8.5,2.3,14.29,14.29,0,0,0-5.44,6.71,27.17,27.17,0,0,0-1.87,10.63q0,9.26,4.16,14.49T901.29,287.66Z"/><path class="cls-6" d="M964.44,298.71a7.56,7.56,0,0,1-4.46-1.24,8.75,8.75,0,0,1-2.85-3.78l-21.42-47.6a6.78,6.78,0,0,1-.68-4.55,5.32,5.32,0,0,1,2.13-3.14,7.65,7.65,0,0,1,8.33.17,9.82,9.82,0,0,1,2.55,3.87l18.78,43.43h-4.25l18.79-43.52a10,10,0,0,1,2.63-3.82,6.46,6.46,0,0,1,4.25-1.28A6,6,0,0,1,992,238.4a5,5,0,0,1,1.87,3.14,7.72,7.72,0,0,1-.72,4.55l-21.42,47.6a9.6,9.6,0,0,1-2.85,3.78A7.31,7.31,0,0,1,964.44,298.71Z"/><path class="cls-6" d="M997.68,298.71a6.3,6.3,0,0,1-3.87-1.11,4.77,4.77,0,0,1-1.87-3,6.5,6.5,0,0,1,.72-4.17l21.76-47.68a10.42,10.42,0,0,1,3.23-4.21,7.78,7.78,0,0,1,8.67,0,9.82,9.82,0,0,1,3.15,4.21l21.93,47.68a7.19,7.19,0,0,1,.8,4.21,4.34,4.34,0,0,1-1.74,3,6.14,6.14,0,0,1-3.74,1.07,6.64,6.64,0,0,1-4.46-1.36,11.17,11.17,0,0,1-2.76-4.25l-5.1-11.82,5.27,3.66h-35.45l5.27-3.66-5,11.82a13,13,0,0,1-2.68,4.29A5.81,5.81,0,0,1,997.68,298.71ZM1021.82,252,1010.94,278l-2.3-3.32h26.61L1033,278,1022,252Z"/><path class="cls-6" d="M1074.18,298.71a6.48,6.48,0,0,1-4.93-1.79,7,7,0,0,1-1.7-5v-43h-15a5.48,5.48,0,0,1-4.08-1.45,6.32,6.32,0,0,1,0-8,5.58,5.58,0,0,1,4.08-1.4h43.27a5.62,5.62,0,0,1,4.08,1.4,6.32,6.32,0,0,1,0,8,5.51,5.51,0,0,1-4.08,1.45h-15v43a7.06,7.06,0,0,1-1.66,5A6.33,6.33,0,0,1,1074.18,298.71Z"/><path class="cls-6" d="M1113.87,297.94a6.21,6.21,0,0,1-6.88-6.88V244.9a6.21,6.21,0,0,1,6.88-6.88h29.67a5.26,5.26,0,0,1,3.86,1.31,5.12,5.12,0,0,1,1.32,3.79,4.63,4.63,0,0,1-5.18,5.18h-24v14h22a5.35,5.35,0,0,1,4,1.31,6.33,6.33,0,0,1,0,7.74,5.35,5.35,0,0,1-4,1.32h-22v15h24a5.22,5.22,0,0,1,3.86,1.31,5.12,5.12,0,0,1,1.32,3.79,4.63,4.63,0,0,1-5.18,5.18Z"/></svg>